<svg xmlns="http://www.w3.org/2000/svg" xmlns:xlink="http://www.w3.org/1999/xlink" viewBox="0 0 266.71472 430.10377"><defs><style>.a{fill:url(#a);}.b{fill:#e5a39e;}.c{fill:#f2d0be;}.d{fill:#9499cc;}.e{fill:#aa1e2a;}.f{fill:#e52b22;}.g{fill:url(#b);}.h{fill:#120f19;}.i{fill:#d1c1cb;}.j{fill:#e4dde1;}.k{fill:url(#c);}.l{fill:url(#d);}.m{fill:url(#e);}.n{fill:url(#f);}.o{fill:#fff;}</style><linearGradient id="a" x1="194.6794" y1="168.62711" x2="194.6794" y2="279.14539" gradientUnits="userSpaceOnUse"><stop offset="0" stop-color="#9499cc"/><stop offset="1" stop-color="#cabac5"/></linearGradient><linearGradient id="b" x1="91.16656" y1="178.82956" x2="91.16656" y2="367.36622" gradientUnits="userSpaceOnUse"><stop offset="0" stop-color="#e84d14"/><stop offset="0.42452" stop-color="#e73f20"/><stop offset="1" stop-color="#e62537"/></linearGradient><linearGradient id="c" x1="70.55652" y1="256.53771" x2="70.55652" y2="118.06301" gradientUnits="userSpaceOnUse"><stop offset="0" stop-color="#d1c1cb"/><stop offset="0.49669" stop-color="#cfc0cb"/><stop offset="0.67558" stop-color="#c8bbcb"/><stop offset="0.80309" stop-color="#bdb4cb"/><stop offset="0.90546" stop-color="#aca9cc"/><stop offset="0.99284" stop-color="#969acc"/><stop offset="1" stop-color="#9499cc"/></linearGradient><linearGradient id="d" x1="114.28932" y1="89.78474" x2="114.28932" y2="8.47542" gradientUnits="userSpaceOnUse"><stop offset="0.18424" stop-color="#e84d14"/><stop offset="0.48115" stop-color="#e84a17"/><stop offset="0.7029" stop-color="#e7401f"/><stop offset="0.89966" stop-color="#e7302d"/><stop offset="1" stop-color="#e62537"/></linearGradient><linearGradient id="e" x1="236.67694" y1="80.52454" x2="236.67694" y2="15.58755" xlink:href="#d"/><linearGradient id="f" x1="164.61377" y1="173.96044" x2="164.61377" y2="29.44762" gradientUnits="userSpaceOnUse"><stop offset="0" stop-color="#d1c1cb"/><stop offset="0.51739" stop-color="#ddd2d8"/><stop offset="1" stop-color="#e4dde1"/></linearGradient></defs><title>ShinHappy</title><path class="a" d="M213.37215,233.46089s3.84763,3.66918,8.14973,1.14516,4.91708-5.43884,4.91708-5.43884-19.10467-2.01582-20.26206-17.5639,17.89259-42.9762,17.89259-42.9762l-39.49514.62739-20.2186,23.88093-1.4359,48.0045,16.92578,26.13518s15.18412,14.26059,16.30082,11.52056,27.923-6.5832,22.80893-34.37342A23.33354,23.33354,0,0,0,213.37215,233.46089Z"/><polygon class="b" points="152.663 204.319 164.356 185.858 126.407 164.114 114.099 185.858 152.663 204.319"/><path class="c" d="M236.07249,107.60147c1.53846,12.61538-5.15264,19.69231-6.99879,23.69231s-9.74945,18.46153-9.74945,22.76923-2.57384,14.06144-4.1123,17.13837-28.90749,17.32316-35.67672,19.7847-6.46153,2.76923-11.38461,4.3077-24-10.76924-28.92308-14.46154-21.84615-14.46154-24.61538-18.15385-8-10.46154-7.07693-20.92308,7.88923-35.982,15.27385-47.38461S144.766,82.063,155.22754,77.44762s24-5.23077,36-5.53846,26.76923,1.84615,31.07692,9.23077S236.07249,107.60147,236.07249,107.60147Z"/><polygon class="b" points="189.381 168.627 189.587 162.884 186.51 165.037 189.381 168.627"/><path class="d" d="M156.35575,164.11429a102.86977,102.86977,0,0,1-17.84616-12.51282c-7.58974-6.97436-16.20513-21.33334-16.20513-21.33334l-3.28205,3.38541s6.25641,13.53767,16.61539,20.20434C141.296,157.49931,156.35575,164.11429,156.35575,164.11429Z"/><path class="d" d="M154.84461,170.30521a102.87017,102.87017,0,0,1-19.98424-8.69978c-8.82887-5.31948-20.13643-17.67036-20.13643-17.67036l-2.54044,3.97227s8.83212,12.01686,20.31313,16.48221C138.76772,166.82858,154.84461,170.30521,154.84461,170.30521Z"/><path class="d" d="M154.94084,175.94816a102.86962,102.86962,0,0,1-21.328-4.49151c-9.72014-3.43-23.28584-13.24715-23.28584-13.24715l-1.68731,4.40293s11.07377,9.98914,23.21934,12.04777C138.49315,175.78465,154.94084,175.94816,154.94084,175.94816Z"/><path class="d" d="M200.30446,173.44762s2.92308-1.84615,8.15385-4.82051a22.60035,22.60035,0,0,0,6.72451-5.74359l-1.31126,6.79259-3.87479,1.92536Z"/><polygon class="d" points="196.174 176.729 207.744 176.056 203.261 178.83 196.174 176.729"/><polygon class="d" points="193.496 182.158 198.797 181.382 195.732 183.067 193.496 182.158"/><path class="e" d="M167.84293,204.31942l3.69075-5.33334-3.38306-3.6923a3.751,3.751,0,0,1-1.38462.13234,71.80279,71.80279,0,0,1-7.01937-2.29069l-4.26268,6.466,3.17949,2.82051Z"/><path class="e" d="M240.71,353.71247c-6.76923.3077-18.99992,1.01334-23.80765-7.33948s-9.14258-20.06415-5.83338-24.76309c3.27877-4.65573,19.43287-19.89743,19.43287-19.89743-4.82052-6.70906-37.48414,15.78677-40.25337,20.92308s7.447-16.33131,8.49272-35.08873c.31636-5.67464,1.20235-35.04935-5.30147-49.32153-12.01177-26.359-25.96049-26.359-25.96049-26.359L143.17157,356.4817s6.25641,15.69231,21.12821,18.46154,34.87179-.30769,45.33333-6.76923S240.71,353.71247,240.71,353.71247Z"/><path class="f" d="M213.50374,345.93524c-2.55341,2.1557-12.15765,6.649-12.15765,6.649s9.00341-1.10058,12.00744-2.20117a21.5521,21.5521,0,0,0,3.95093-2.24615c5.93256,5.7865,14.346,9.38537,23.40558,5.57556,15.21789-6.39954,12.20514-24.718,10.82434-33.12824,0,0-4.60706-24.41021-27.82434-19.72986-7.52265,1.51648-11.96057,8.10346-14.02582,15.53553-.60193.58764-1.22882,1.23462-1.7879,1.88232-1.83478,2.12561-5.99353,4.252-5.99353,4.252a13.30071,13.30071,0,0,0,4.327-1.13251c.62134-.37982,1.72681-1.21155,2.76081-2.0163a37.79068,37.79068,0,0,0-.07245,14.2685c-.20612.282-.38678.52612-.52118.702-1.2016,1.57227-8.14844,6.60358-8.14844,6.60358s4.844-.62891,7.2945-2.04395a25.174,25.174,0,0,0,2.43273-1.69128,30.77985,30.77985,0,0,0,4.53016,7.80493C214.17775,345.33978,213.84236,345.64935,213.50374,345.93524Z"/><path class="b" d="M226.88,346.32861c4.76262-4.82937,10.33592-7.24472,14.908-12.25983l4.57212-5.0151-12.57333-18.203a12.31613,12.31613,0,0,1-5.33414,6.12957c-4.0006,2.22894-13.37772,2.6933-13.32582,3.9858A23.17019,23.17019,0,0,0,226.88,346.32861Z"/><path class="c" d="M246.14519,333.40478c-4.718.82051-11.25332.82051-14.6523-1.84615s-5.45027-9.02564-3.60411-14.15385,3.60411-6.359,3.60411-6.359a16.93242,16.93242,0,0,1,0-10.46154c4.06255-11.38462,7.67794-8.84616,7.67794-13.46154s.1551-7.94872-.15385-11.23077,1.23077-9.92308,6.30769-4.69231,4.46154,9.69231,4,11.53846a38.54481,38.54481,0,0,1-1.79487,4.82052h0l4.5641-3.89744,8.61539.15385,5.94872,7.62921s-.71795,4.52463-1.641,5.44771a2.98025,2.98025,0,0,1,1.641,2.30769c.05128,1.53846-2.56411,6.3077-2.56411,6.3077s1.69231,1.6923.92308,3.53846a49.89913,49.89913,0,0,1-2.76923,5.07692s1.69231,4.15385,0,6.15385-3.53846,6.15384-6.61538,8.92307S246.14519,333.40478,246.14519,333.40478Z"/><path class="b" d="M257.63237,320.68683a6.89749,6.89749,0,0,1-3-.87179,4.16926,4.16926,0,0,1-1.61539-1.4359s-4.33456,3.16565-7.873,2.47335a4.599,4.599,0,0,1-3.89621-4.34514c-.13716-1.374,2.07692-2.23077,2.07692-2.23077s-2.30769-1.53847-1.6923-3.641a5.60361,5.60361,0,0,1,2.15384-3.05128S242.56,307.4957,242.017,304.892c-.69231-3.31963,2.46154-5.46154,2.46154-5.46154a2.11713,2.11713,0,0,1-2.226-2.22342c-.21033-3.08464,5.27728-9.64837,5.27728-9.64837a62.80138,62.80138,0,0,0-7.74359,7.58974c-2.87179,3.69231-5.74359,11.48718-1.94872,14.5641,1.24763,1.01159-.93589,15.859,4.10257,13.84616C247.83865,321.20219,257.63237,320.68683,257.63237,320.68683Z"/><path class="g" d="M166.409,219.22514a7.05872,7.05872,0,0,0,1.434-9.77752s1.318-2.5641,5.73591-5.1282,2.65674-4.25546.72562-7.38462-2.77078-2.79729-2.77078-2.79729l-3.78716,1.24412s4.53082,6.27616-3.39077,4.63009-29.74359-14.66407-29.74359-14.66407l-14.6378-6.51809s-67.41349,42.15407-70.69554,51.79509-12.03266,11.98947-13.33333,20.57392c-2.05128,13.53846-31.89742,61.43314-33.641,69.01828-3.3063,14.38334-2.68391,13.05691-.46153,21.39083,1.02564,3.84615,6.60923,12.6412,12.5641,14.33614,18.18222,5.17524,26.359-4.34235,28.82051-6.80389,0,0,33.74359,20.30769,62.05128,18.05128s37.94872-4.92308,37.94872-4.92308,4.30769-14.97435,8.61539-21.53846,28.51282-30.26822,30.15384-49.34514-3.08459-39.06511-6.359-46.44973S166.409,219.22514,166.409,219.22514Z"/><path class="e" d="M167.56891,218.04635c-5.6747,3.91409-23.66757,10.558-35.77863,2.27307-27.13718-18.56411-58.15684-18.00225-61.23376-22.10482,0,0,21.28641,62.05773,44.97871,61.03209s61.4783-17.51564,61.4783-17.51564Z"/><path class="e" d="M99.00469,262.52213c3.24634,4.32846,3.85293,12.54377,3.38916,15.31526s-1.79563,9.48715-1.79563,9.48715-1.16557-18.1477-4.85163-22.17442a90.112,90.112,0,0,0-13.45014-11.619l7.26663-4.61273S95.75835,258.19368,99.00469,262.52213Z"/><path class="e" d="M88.40368,263.105c4.17386,6.0644,7.34291,11.76634,6.57,16.56745A72.41288,72.41288,0,0,1,92.414,289.72713a19.163,19.163,0,0,0-1.92337-12.07763l-3.24634-5.92941L80.47963,263.105l-3.4513-6.06518Z"/><path class="e" d="M85.03427,276.78645a42.00265,42.00265,0,0,0-8.86357-8.8009s6.78509,8.09282,6.57443,14.99162.28156,9.35471-1.09233,12.52935C81.6528,295.50652,89.58919,282.71784,85.03427,276.78645Z"/><path class="e" d="M175.886,202.43914c-4.761,1.67515-8.24419,4.27358-18.09234,0s-34.98456-18.22229-34.98456-18.22229l-3.78667,30.20477,12.76787,9.17985,37.69824.61395s1.64559-8.00214,0-11.385l-1.64559-3.38283s4.7026-2.25641,5.73591-3.48718A28.64916,28.64916,0,0,0,175.886,202.43914Z"/><polygon class="f" points="146.51 195.426 139.228 203.294 141.381 193.135 146.51 195.426"/><polygon class="f" points="139.095 190.986 128.561 210.268 133.828 188.525 139.095 190.986"/><path class="e" d="M74.53884,276.854c-.66987-1.59894-1.15748-2.48334-1.15748-2.48334A6.73644,6.73644,0,0,1,74.53884,276.854Z"/><path class="e" d="M40.61214,348.62709c-2.53845-1.76922-4.73139-3.21539-4.73139-3.21539l5.60321.44617c-1.74359-3.282-6.79486-9.10254-6.79486-9.10254s1.56836.104,7.61536,4.22345a19.28332,19.28332,0,0,1,4.5025,3.93451c5.58777-6.72193,15.95624-19.73884,17.959-26.08106,2.76922-8.76923,3.38458-24,1.23077-33.38464S58.15059,262.986,58.15059,262.986s8,10,11.38464,20.9231,1.69233,14.46154,1.69233,14.46154,5.38458-6.30768,4.61535-14.30768a35.54157,35.54157,0,0,0-1.30407-7.209,52.94931,52.94931,0,0,1-2.54206,45.36279c-13.69232,25.69233-25.464,28.78485-25.464,28.78485-3.6178,3.9386-13.21533,4.98322-12.98919,4.88013C36.158,354.68947,43.15059,350.39632,40.61214,348.62709Z"/><path class="h" d="M55.22756,381.9604s55.13293-38.83105,86.18853-129.20275a185.47061,185.47061,0,0,1-12.3424,16.99768c-2.66669,3.48712-8,1.02563-8,1.02563s-4.65216-5.12823-8.8902-9.84619-7.52-7.79486-7.52-12.718S134.407,227.60066,142.20192,224.678a26.64523,26.64523,0,0,1,5.49945-1.49609c-.09918-1.03186-.16614-1.97815-.16614-2.65735a4.14148,4.14148,0,0,1,2.05127-3.69232h6.76923s3.282,1.02564,4.51282,3.69232v4.38452c6.64062,5.3241,31.39459,25.515,32.62719,31.62861.82935,4.11364-8.21691,17.34783-10.67846,20.10327s-6.97437,2.98816-10.25641,0c-2.25714-2.05512-9.16333-18.02582-13.25647-27.79993,1.03564,13.48456,2.25561,30.12415,2.79492,40.33838,1.02564,19.42407-.41022,36.57593-1.23077,63.44769S147.53523,430.781,147.53523,430.781c-11.0769-10.15387-10.05127-27.077-10.05127-27.077-8.50231,11.69232-23.38464,10.87182-23.38464,10.87182,20.1026-24.41028,30.97437-78.76922,33.43591-93.33337,1.5243-9.01868,2.83643-43.64319,3.61487-68.70624-12.60644,40.43787-41.41229,122.97955-71.92254,142.75757,0,0-3.69233-9.43591-.20514-16C79.02242,379.29378,61.17629,384.422,55.22756,381.9604Z"/><path class="d" d="M193.51522,256.38243c.90278-4.58446-16.43751-18.06427-18.63748-19.963s-14.39993-12.204-14.39993-12.204,13.8273,23.0038,18.33738,26.98315C181.16094,253.26827,191.93724,264.39559,193.51522,256.38243Z"/><path class="d" d="M147.72026,223.022s-23.1564,17.36559-26.49272,19.75939c-10.93545,7.84615-17.05743,8.45966-16.54461,5.28017s12.07875-12.44169,25.87077-18.70847S147.72026,223.022,147.72026,223.022Z"/><path class="d" d="M146.85619,375.89057l5.82855,32.31458c-2.65473,12.6734-4.90546,21.89862-4.90546,21.89862C136.70232,419.95,137.728,403.02686,137.728,403.02686c-8.50232,11.69233-23.38458,10.87183-23.38458,10.87183,5.50488-6.68451,10.31592-15.61676,14.45325-25.36072Z"/><path class="d" d="M55.22754,381.9604s10.32526-7.27533,24.5517-22.8396l18.21753-6.553,1.50354,20.87787c-6.559,9.68237-13.37189,17.3747-20.27277,21.84815,0,0-3.69226-9.43592-.20508-16C79.02246,379.29378,61.17627,384.422,55.22754,381.9604Z"/><path class="i" d="M198.79719,43.60147c3.55094-6.459,15.19958-18.15385,19.19958-22.46154S230.61216,9.34937,234.30446,8.47542s4-.25857,6.76924,2.81836,7.07692,19.07692,8.30769,23.6923,3.07692,22.46154,2.46154,31.38462,0,13.905-3.07693,23.414-33.58318-11.414-33.58318-11.414L200.30446,55.29378l-4.13064-11.69231Z"/><path class="j" d="M151.84293,34.98608c-4.92308-5.53846-36.3077-26.15384-46.15385-30.76923S94.30446-.70622,93.38139.83224,81.0737,9.44762,81.99677,40.52454s2.15385,44.3077,6.76923,54.76924,36.51282,1.23076,36.51282,1.23076l22.56411-31.6923,8.51282-21.53846Z"/><path class="k" d="M112.1835,120.21685c10.121,10.05128,22.3863,32.20513,21.33055,48.41026s-12.29768,24.66667-12.33055,37.89743,7.79086,12.61539,7.79086,12.61539-.06589,7.38461-7.791,7.38461-11.72508-4-11.72508-4-9.30769,22-20.38461,29.69231-29.53847,2.76923-29.53847,2.76923,14.46154-4,16-11.07692c0,0-7.07692,11.38462-33.23077,3.69231S7.53523,230.063,7.53523,230.063s2.46154,1.53846,12.92308-.92308S30.61216,206.67839,53.68908,206.063c0,0-2.46154,2.46153-12-4.61539s-8.30769-13.07034-8.30769-13.07034,31.38461,8.38947,45.23077-14.92966S85.0737,118.063,85.0737,118.063Z"/><path class="l" d="M139.22754,57.44762A144.34832,144.34832,0,0,0,125.27882,34.063c-6.97436-9.23077-23.282-24.92308-26.66666-25.53847s-8.61539,4.3077-9.23077,28.61539,8.30769,39.69231,12.30769,50.15385S130.61216,71.881,130.61216,71.881Z"/><path class="m" d="M229.38139,58.3707c-2.46154-14.15385-1.53846-19.69231,0-27.69231s3.69231-12.61538,4.92307-13.84615,2.46154-3.69231,5.23077,5.53846,5.23077,16.288,5.84616,26.75938-1.53846,31.39446-1.53846,31.39446L233.0737,73.75531Z"/><path class="n" d="M250.50959,118.3707a12.67205,12.67205,0,0,0,10.8718-2.66667c3.89743-3.07692,5.33333-11.48718,5.33333-11.48718a15.17677,15.17677,0,0,1-8.10256-.41025c-4.61539-1.4359-9.74416-6.53133-8.53772-15.3552,0,0-4.693-30.38839-25.30844-38.38839s-18.76923-6.76923-20.92307-6.76923,0-4.61539,0-4.61539a15.00928,15.00928,0,0,0-10.46154-5.23077,24.32483,24.32483,0,0,0-12,1.84616S172.766,29.44762,164.766,29.44762s-13.53846.92308-17.23077,3.07692-10.76923,20-10.76923,20-17.53846,8-22.76923,14.76924-11.38461,24.30769-11.38461,24.30769-3.38462,4.30769-8.61539,4,3.07693,1.53846-5.23077-.30769S63.53523,79.60147,63.53523,79.60147,56.15062,128.52454,81.0737,134.063s34.76923-7.07693,34.76923-7.07693-4.61539,10.46154-18.46154,13.23077c0,0,29.23077,9.84616,60.92307-11.38461s28-21.84616,28-21.84616-2.15384,18.15385-7.6923,29.23077-13.99839,25.53846-13.99839,25.53846,23.22916-.30769,44.15223-18.76923,23.69231-30.15384,23.69231-30.15384a39.166,39.166,0,0,1-3.07692,15.6923c-3.38462,7.38462-15.38462,24.3077-15.07693,27.38462s2.76924,6.76923.3077,12a51.59943,51.59943,0,0,1-3.07693,6.05128s22.56411-1.94872,27.79488-11.38461,2.76923-16.20513,2.76923-16.20513,2.76923,4.41025,2.97436,8.51282,0,15.07692,0,15.07692,20.92411-18.05875,14.05128-36.61538C257.0737,127.8066,250.50959,118.3707,250.50959,118.3707Z"/><path class="o" d="M226.26014,91.3728c-3.77538,4.298.24762,16.70121.24762,16.70121s-16.23892-6.65808-34.049,7.36271c0,0,2.595-16.31561-4.21186-25.84683C188.24685,89.58989,200.67623,98.15537,226.26014,91.3728Z"/><path class="o" d="M122.80908,90.12047c6.69947-1.68942,10.76872-11.13439,10.76872-11.13439s17.03436,8.20513,41.6391,8.54217c0,0-11.62362,12.77689-8.6222,24.75364C166.5947,112.28189,162.45518,92.2628,122.80908,90.12047Z"/><polygon class="o" points="125.279 74.678 125.279 78.986 115.535 85.14 118.016 75.909 125.279 74.678"/><polygon class="o" points="245.492 89.785 246.416 100.285 242.612 107.601 238.612 95.634 242.514 89.785 245.492 89.785"/><path class="i" d="M180.97113,45.75531s9.33333-2.46153,14.10257-2.46153c0,0-9.17949-3.69231-14.10257-1.23077,0,0,.41026-6.76923-13.53846-6.97436,0,0,5.10693,1.84615,7.78423,5.33333,0,0,.4209-2.25641-7.78423-2.87179S156.39358,40.422,156.39358,40.422s14.81619-2.25641,20.62,2.46154S180.97113,45.75531,180.97113,45.75531Z"/><path class="f" d="M192.94642,174.40644c-3.48718,1.02564-8.07847,3.01913-14.04858,1.97436-6.15384-1.07692-9.336-4.4359-10.77193-7.51282,0,0-7.04673,15.5781-.47227,16.56578C178.90728,187.12439,192.94642,174.40644,192.94642,174.40644Z"/><path class="h" d="M173.35667,148.45772c-.92307-5.53846-3.49729-14.69318-11.59985-16.23164-11.88586-2.25681-20.523,7.45122-24.22191,10.84765,0,0,15.20638-7.43652,21.1551-4.15447,9.02507,4.97935,11.07692,15.38462,11.07692,15.38462Z"/><path class="h" d="M194.12591,158.91926c1.17955-2.63838,8.126-15.17749,19.74359-15.17948,5.55054-.001,4.41025,5.94871,4.41025,5.94871l-3.282,6.05129s.52716-5.96786-6.718-5.12821S194.12591,158.91926,194.12591,158.91926Z"/><polyline class="o" points="172.631 174.006 169.76 171.442 168.541 176.297 172.631 174.006"/></svg>