<svg height="512pt" viewBox="-83 0 512 512.0003" width="512pt" xmlns="http://www.w3.org/2000/svg"><path d="m224.335938 460.714844c0 22.582031-14.597657 41.753906-34.878907 48.605468-5.160156 1.738282-10.675781 2.679688-16.417969 2.679688-28.320312 0-51.285156-22.960938-51.285156-51.285156zm0 0" fill="#cacadb"/><path d="m224.335938 460.714844c0 22.582031-14.597657 41.753906-34.878907 48.605468-20.273437-6.851562-34.867187-26.023437-34.867187-48.605468zm0 0" fill="#e4e4ef"/><path d="m346.652344 173.324219c0-95.832031-77.777344-173.5-173.652344-173.324219-95.894531.175781-173.902344 79.109375-172.9921875 175 .3632815 38.207031 13.0898435 73.453125 34.3671875 101.9375 8.277344 11.082031 12.921875 24.449219 12.921875 38.28125v1.027344c0 26.058594 21.125 47.179687 47.183594 47.179687l78.847656 33.199219 78.84375-33.199219c26.058594 0 47.179687-21.121093 47.179687-47.179687v-1.011719c0-13.542969 4.25-26.796875 12.40625-37.605469 21.902344-29.019531 34.894532-65.144531 34.894532-104.304687zm0 0" fill="#ffbf3e"/><g fill="#e8a328"><path d="m173.324219 255.441406c-32.410157 0-58.78125-26.371094-58.78125-58.785156 0-4.386719 3.554687-7.945312 7.945312-7.945312 4.386719 0 7.941407 3.558593 7.941407 7.945312 0 23.652344 19.242187 42.894531 42.894531 42.894531 23.65625 0 42.898437-19.242187 42.898437-42.894531 0-4.386719 3.554688-7.945312 7.941406-7.945312 4.390626 0 7.945313 3.558593 7.945313 7.945312 0 32.414062-26.371094 58.785156-58.785156 58.785156zm0 0"/><path d="m173.324219 388.679688c-4.386719 0-7.941407-3.554688-7.941407-7.941407v-133.242187c0-4.386719 3.554688-7.945313 7.941407-7.945313 4.390625 0 7.945312 3.558594 7.945312 7.945313v133.242187c0 4.386719-3.554687 7.941407-7.945312 7.941407zm0 0"/><path d="m131.492188 363.429688h-37.015626c-26.058593 0-47.1875-21.128907-47.1875-47.183594v-1.027344c0-13.832031-4.640624-27.199219-12.921874-38.277344-21.277344-28.492187-34-63.730468-34.3593755-101.933594-.9101565-95.898437 77.0976565-174.828124 172.9843755-175.007812-50.808594.351562-92.105469 79.207031-91.621094 175.007812.191406 38.203126 6.9375 73.441407 18.230468 101.933594 4.394532 11.078125 6.851563 24.445313 6.851563 38.277344v1.027344c0 26.054687 11.21875 47.183594 25.039063 47.183594zm0 0"/></g><path d="m291.285156 407.207031c4.636719-4.640625 7.507813-11.046875 7.507813-18.132812 0-14.160157-11.480469-25.644531-25.652344-25.644531h-200.191406c-7.085938 0-13.503907 2.871093-18.144531 7.511718-4.640626 4.640625-7.507813 11.046875-7.507813 18.132813 0 14.160156 11.480469 25.640625 25.652344 25.640625h18.863281c-7.074219 0-13.496094 2.871094-18.132812 7.511718-4.648438 4.636719-7.519532 11.046876-7.519532 18.132813 0 14.171875 11.492188 25.652344 25.652344 25.652344h162.464844c7.085937 0 13.492187-2.871094 18.132812-7.507813 4.640625-4.640625 7.507813-11.058594 7.507813-18.144531 0-14.160156-11.480469-25.644531-25.640625-25.644531h18.863281c7.085937 0 13.492187-2.867188 18.144531-7.507813zm0 0" fill="#40404c"/><path d="m291.285156 407.207031c4.636719-4.640625 7.507813-11.046875 7.507813-18.132812 0-14.160157-11.480469-25.644531-25.652344-25.644531h-147.625c-7.078125 0-13.496094 2.871093-18.132813 7.511718-4.640624 4.640625-7.511718 11.046875-7.511718 18.132813 0 14.160156 11.484375 25.640625 25.644531 25.640625h18.863281c-7.085937 0-13.496094 2.871094-18.132812 7.511718-4.640625 4.636719-7.511719 11.046876-7.511719 18.132813 0 14.171875 11.484375 25.652344 25.644531 25.652344h109.898438c7.085937 0 13.492187-2.871094 18.132812-7.507813 4.640625-4.640625 7.507813-11.058594 7.507813-18.144531 0-14.160156-11.480469-25.644531-25.640625-25.644531h18.863281c7.085937 0 13.492187-2.867188 18.144531-7.507813zm0 0" fill="#5b5b68"/></svg>