<?xml version="1.0" encoding="UTF-8" standalone="no"?>
<!DOCTYPE svg PUBLIC "-//W3C//DTD SVG 1.1//EN" "http://www.w3.org/Graphics/SVG/1.1/DTD/svg11.dtd">
<svg width="100%" height="100%" viewBox="0 0 519 144" version="1.1" xmlns="http://www.w3.org/2000/svg" xmlns:xlink="http://www.w3.org/1999/xlink" xml:space="preserve" xmlns:serif="http://www.serif.com/" style="fill-rule:evenodd;clip-rule:evenodd;stroke-linejoin:round;stroke-miterlimit:2;">
    <g transform="matrix(1,0,0,1,-187.315,-4.90111)">
        <g id="Artboard1" transform="matrix(0.75451,0,0,0.545304,182.935,0.584715)">
            <rect x="5.805" y="7.916" width="687.599" height="262.269" style="fill:none;"/>
            <clipPath id="_clip1">
                <rect x="5.805" y="7.916" width="687.599" height="262.269"/>
            </clipPath>
            <g clip-path="url(#_clip1)">
                <g transform="matrix(1.85001,0,0,2.55977,-1293.28,-618.707)">
                    <path d="M735.481,299.109C734.362,297.682 733.344,296.56 730.597,295.133C728.254,293.808 719.892,291.973 719.79,291.973C713.569,290.647 711.121,289.016 711.121,285.957C711.121,284.122 712.447,282.287 714.487,281.268C715.914,280.554 717.648,280.248 719.484,280.248C721.421,280.248 725.399,280.758 729.987,284.326L735.074,278.417C731.411,275.466 727.03,273.533 722.543,272.821C721.421,272.719 720.198,272.618 719.076,272.618C716.118,272.618 713.467,273.228 711.019,274.347C708.374,275.568 706.542,276.992 705.219,278.824C703.795,280.962 702.981,283.409 702.981,285.957C702.981,290.647 705.219,294.419 709.493,296.866C712.345,298.497 720.096,299.925 720.402,300.027C726.724,301.148 729.478,303.085 729.478,306.246C729.478,309.406 727.132,310.936 725.807,311.547C724.175,312.261 722.339,312.669 720.402,312.669C717.546,312.669 712.957,311.751 707.56,307.163L702.064,313.177C706.135,316.637 710.918,318.875 716.016,319.893C717.648,320.198 719.178,320.401 720.809,320.401C723.767,320.401 726.724,319.791 729.172,318.672C731.92,317.349 733.955,315.721 735.38,313.584C736.906,311.445 737.618,308.897 737.618,306.246C737.618,303.595 736.906,301.148 735.481,299.109Z" style="fill:url(#_Linear2);fill-rule:nonzero;"/>
                    <path d="M784.303,278.926C780.025,274.653 774.315,272.414 768.3,272.414C763.304,272.414 758.512,274.754 754.535,277.807L754.535,245.203L745.784,245.203L745.784,319.994L754.535,319.994L754.535,294.923C754.535,287.28 760.755,280.962 768.3,280.962C775.947,280.962 782.064,287.28 782.064,294.923L782.064,319.994L790.816,319.994L790.816,294.923C790.816,288.809 788.475,283.204 784.303,278.926Z" style="fill:url(#_Linear3);fill-rule:nonzero;"/>
                    <path d="M807.943,265.777C811.099,265.777 813.644,263.13 813.644,259.974C813.644,256.818 811.099,254.274 807.943,254.274C804.686,254.274 802.141,256.818 802.141,259.974C802.141,263.13 804.686,265.777 807.943,265.777ZM803.567,319.994L812.319,319.994L812.319,273.331L803.567,273.331L803.567,319.994Z" style="fill:url(#_Linear4);fill-rule:nonzero;"/>
                    <path d="M866.24,278.926C861.962,274.653 856.252,272.414 850.236,272.414C845.24,272.414 840.448,274.754 836.472,277.807L836.472,273.331L827.72,273.331L827.72,319.994L836.472,319.994L836.472,294.93C836.472,287.28 842.692,280.962 850.236,280.962C857.883,280.962 864.001,287.28 864.001,294.923L864.001,319.994L872.753,319.994L872.753,294.923C872.753,288.809 870.412,283.204 866.24,278.926Z" style="fill:url(#_Linear5);fill-rule:nonzero;"/>
                    <path d="M923.821,279.333C919.236,274.754 913.119,272.312 906.594,272.312C900.782,272.312 895.277,275.059 890.893,278.723L890.893,273.331L882.141,273.331L882.141,346.694L890.893,346.694L890.893,314.602C895.277,318.265 900.782,321.013 906.594,321.013C913.119,321.013 919.236,318.571 923.821,313.991C928.502,309.306 931.046,303.191 931.046,296.669C931.046,290.146 928.502,284.032 923.821,279.344L923.821,279.333ZM906.594,312.465C897.928,312.465 890.893,305.331 890.893,296.669C890.893,287.996 897.928,280.86 906.594,280.86C915.26,280.86 922.294,287.996 922.294,296.662C922.294,305.328 915.26,312.465 906.594,312.465Z" style="fill:url(#_Linear6);fill-rule:nonzero;"/>
                    <path d="M946.744,315.009C950.817,318.978 956.222,321.013 962.033,321.013C967.743,321.013 973.147,318.978 977.221,315.009C981.292,311.038 983.632,305.739 983.632,300.032L983.632,273.331L974.88,273.331L974.88,300.032C974.88,306.86 969.069,312.465 962.033,312.465C954.896,312.465 949.186,306.86 949.186,300.032L949.186,273.331L940.434,273.331L940.434,300.032C940.434,305.739 942.673,311.038 946.744,315.009Z" style="fill:url(#_Linear7);fill-rule:nonzero;"/>
                    <path d="M1004.93,273.331L996.18,273.331L996.18,319.994L1004.93,319.994L1004.93,295.127C1004.93,287.28 1011.66,281.063 1019.81,281.063L1021.95,272.312C1016.55,272.312 1007.89,274.859 1004.93,278.119L1004.93,273.331Z" style="fill:url(#_Linear8);fill-rule:nonzero;"/>
                    <path d="M1036.93,315.009C1041.01,318.978 1046.41,321.013 1052.22,321.013C1057.93,321.013 1063.34,318.978 1067.41,315.009C1071.48,311.038 1073.82,305.739 1073.82,300.032L1073.82,273.331L1065.07,273.331L1065.07,300.032C1065.07,306.86 1059.26,312.465 1052.22,312.465C1045.09,312.465 1039.38,306.86 1039.38,300.032L1039.38,273.331L1030.63,273.331L1030.63,300.032C1030.63,305.739 1032.87,311.038 1036.93,315.009Z" style="fill:url(#_Linear9);fill-rule:nonzero;"/>
                </g>
            </g>
        </g>
    </g>
    <defs>
        <linearGradient id="_Linear2" x1="0" y1="0" x2="1" y2="0" gradientUnits="userSpaceOnUse" gradientTransform="matrix(-382.708,-101.491,101.491,-382.708,1080.05,346.694)"><stop offset="0" style="stop-color:rgb(253,75,2);stop-opacity:1"/><stop offset="1" style="stop-color:rgb(255,12,53);stop-opacity:1"/></linearGradient>
        <linearGradient id="_Linear3" x1="0" y1="0" x2="1" y2="0" gradientUnits="userSpaceOnUse" gradientTransform="matrix(-382.708,-101.491,101.491,-382.708,1080.05,346.694)"><stop offset="0" style="stop-color:rgb(253,75,2);stop-opacity:1"/><stop offset="1" style="stop-color:rgb(255,12,53);stop-opacity:1"/></linearGradient>
        <linearGradient id="_Linear4" x1="0" y1="0" x2="1" y2="0" gradientUnits="userSpaceOnUse" gradientTransform="matrix(-382.708,-101.491,101.491,-382.708,1080.05,346.694)"><stop offset="0" style="stop-color:rgb(253,75,2);stop-opacity:1"/><stop offset="1" style="stop-color:rgb(255,12,53);stop-opacity:1"/></linearGradient>
        <linearGradient id="_Linear5" x1="0" y1="0" x2="1" y2="0" gradientUnits="userSpaceOnUse" gradientTransform="matrix(-382.708,-101.491,101.491,-382.708,1080.05,346.694)"><stop offset="0" style="stop-color:rgb(253,75,2);stop-opacity:1"/><stop offset="1" style="stop-color:rgb(255,12,53);stop-opacity:1"/></linearGradient>
        <linearGradient id="_Linear6" x1="0" y1="0" x2="1" y2="0" gradientUnits="userSpaceOnUse" gradientTransform="matrix(-382.708,-101.491,101.491,-382.708,1080.05,346.694)"><stop offset="0" style="stop-color:rgb(253,75,2);stop-opacity:1"/><stop offset="1" style="stop-color:rgb(255,12,53);stop-opacity:1"/></linearGradient>
        <linearGradient id="_Linear7" x1="0" y1="0" x2="1" y2="0" gradientUnits="userSpaceOnUse" gradientTransform="matrix(-382.708,-101.491,101.491,-382.708,1080.05,346.694)"><stop offset="0" style="stop-color:rgb(253,75,2);stop-opacity:1"/><stop offset="1" style="stop-color:rgb(255,12,53);stop-opacity:1"/></linearGradient>
        <linearGradient id="_Linear8" x1="0" y1="0" x2="1" y2="0" gradientUnits="userSpaceOnUse" gradientTransform="matrix(-382.708,-101.491,101.491,-382.708,1080.05,346.694)"><stop offset="0" style="stop-color:rgb(253,75,2);stop-opacity:1"/><stop offset="1" style="stop-color:rgb(255,12,53);stop-opacity:1"/></linearGradient>
        <linearGradient id="_Linear9" x1="0" y1="0" x2="1" y2="0" gradientUnits="userSpaceOnUse" gradientTransform="matrix(-382.708,-101.491,101.491,-382.708,1080.05,346.694)"><stop offset="0" style="stop-color:rgb(253,75,2);stop-opacity:1"/><stop offset="1" style="stop-color:rgb(255,12,53);stop-opacity:1"/></linearGradient>
    </defs>
</svg>
