<?xml version="1.0" encoding="UTF-8" standalone="no"?>
<svg width="100%" height="100%" viewBox="0 0 64 64" version="1.1" xmlns="http://www.w3.org/2000/svg" style="fill-rule:evenodd;clip-rule:evenodd;stroke-linejoin:round;stroke-miterlimit:2;">
    <rect id="Artboard1" x="0" y="0" width="64" height="64" style="fill:none;"/>
    <clipPath id="_clip1">
        <rect id="Artboard11" x="0" y="0" width="64" height="64"/>
    </clipPath>
    <g clip-path="url(#_clip1)">
        <g transform="matrix(1.20539,0,0,1.23894,-8.33495,-15.2924)">
            <path d="M27.491,15.925C28.612,13.741 30.904,12.362 33.412,12.362C35.921,12.362 38.213,13.741 39.333,15.925C45.13,27.223 53.852,44.221 59.221,54.686C60.245,56.682 60.134,59.051 58.928,60.948C57.722,62.845 55.593,64 53.3,64C42.125,64 24.699,64 13.525,64C11.232,64 9.102,62.845 7.896,60.948C6.69,59.051 6.58,56.682 7.604,54.686C12.973,44.221 21.694,27.223 27.491,15.925Z" style="fill:white;"/>
        </g>
    </g>
</svg>
